<!DOCTYPE svg PUBLIC "-//W3C//DTD SVG 20010904//EN" "http://www.w3.org/TR/2001/REC-SVG-20010904/DTD/svg10.dtd">
<svg xmlns="http://www.w3.org/2000/svg" viewBox="0 0 512.000000 512.000000">

    <g transform="translate(0.000000,512.000000) scale(0.100000,-0.100000)">
        <path
            d="M2402 4739 c-247 -24 -507 -123 -719 -275 -116 -83 -280 -252 -361 -372 -345 -506 -345 -1178 0 -1684 82 -121 246 -289 361 -372 531 -378 1223 -378 1754 0 115 83 279 251 361 372 224 329 307 732 231 1127 -55 290 -186 539 -397 757 -324 334 -761 493 -1230 447z m430 -110 c336 -67 646 -263 854 -538 57 -76 182 -307 199 -368 l6 -22 -469 0 c-258 0 -475 -3 -483 -6 -13 -5 -79 -157 -79 -183 0 -7 14 -12 35 -12 l35 0 0 -112 0 -113 -198 0 c-214 1 -291 13 -300 47 -3 13 -10 17 -23 13 -11 -4 -31 2 -50 15 -16 12 -32 20 -35 18 -2 -3 -10 -33 -17 -68 -11 -54 -17 -65 -37 -71 -32 -9 -110 -11 -110 -3 0 3 9 18 21 32 13 17 16 28 9 30 -21 7 -50 -30 -50 -63 0 -40 -25 -66 -35 -36 -6 19 -26 29 -115 51 -50 13 -170 77 -170 90 0 10 115 80 130 80 5 0 24 -9 42 -20 18 -11 40 -20 50 -20 9 0 46 35 82 78 71 86 104 118 94 92 -8 -23 9 -60 28 -60 23 0 54 29 54 50 0 9 -7 25 -15 36 -16 22 -19 44 -6 44 5 0 25 -16 44 -35 32 -32 39 -35 91 -34 61 2 71 9 71 53 0 23 5 31 25 36 17 4 26 15 30 35 4 17 12 40 19 53 6 12 11 28 9 35 -3 20 12 55 27 61 20 7 7 36 -16 36 -13 0 -19 -7 -19 -24 0 -13 -7 -37 -15 -52 -8 -16 -15 -43 -15 -60 0 -34 -24 -73 -37 -61 -4 5 -8 23 -8 40 0 32 -1 32 -55 35 -30 2 -59 7 -64 13 -15 14 -82 11 -96 -5 -6 -8 -10 -25 -8 -38 2 -18 10 -24 36 -26 18 -2 40 2 48 9 11 9 14 8 14 -4 0 -33 -122 -67 -150 -42 -43 39 -108 19 -94 -29 7 -25 33 -48 46 -39 24 14 -15 -37 -65 -85 l-54 -53 -52 9 c-50 9 -55 8 -134 -33 -64 -33 -93 -43 -134 -44 -73 -1 -114 -21 -187 -91 -34 -33 -66 -60 -69 -60 -4 0 -7 25 -7 56 0 55 2 60 74 153 136 178 208 304 246 429 25 87 71 139 165 189 66 34 162 73 168 67 2 -2 -5 -50 -15 -106 -10 -57 -18 -109 -18 -115 0 -10 63 -13 280 -13 232 0 280 -2 280 -14 0 -18 69 -31 83 -17 8 8 8 11 -1 11 -7 0 -12 5 -12 10 0 6 25 10 55 10 31 0 55 4 55 10 0 28 -64 171 -80 180 -11 6 -101 10 -207 10 -125 0 -205 5 -238 14 -56 14 -95 33 -95 44 0 4 57 22 128 41 70 18 150 40 177 48 60 18 222 12 363 -12 51 -9 98 -15 105 -12 19 6 -147 55 -270 80 -108 21 -113 23 -113 47 0 17 8 29 23 35 21 10 27 37 16 74 -2 8 29 34 83 68 80 50 91 54 118 45 39 -14 39 -1 0 16 -29 13 -36 11 -132 -39 -56 -28 -103 -48 -105 -43 -12 32 -22 38 -48 26 -24 -11 -26 -16 -20 -53 6 -35 4 -43 -19 -64 -30 -28 -34 -60 -8 -74 11 -6 14 -13 7 -19 -5 -6 -104 -35 -218 -67 -211 -57 -347 -106 -425 -152 -24 -13 -45 -23 -47 -21 -2 2 22 58 55 123 61 124 113 198 165 232 17 11 62 41 101 66 45 30 84 65 110 101 38 53 41 55 104 65 148 24 329 21 482 -10z m-813 -105 c-33 -36 -109 -84 -133 -84 -33 0 -100 -81 -153 -186 -63 -122 -95 -210 -139 -382 -37 -145 -74 -230 -139 -316 -46 -62 -153 -176 -164 -176 -22 0 15 271 51 370 38 106 57 192 58 250 0 38 8 55 50 111 69 92 222 236 322 302 84 56 259 148 267 141 3 -2 -6 -16 -20 -30z m1934 -1074 c16 -81 11 -337 -7 -440 -36 -204 -136 -433 -261 -601 -122 -163 -304 -317 -490 -413 -70 -36 -86 -35 -66 3 26 49 -1 135 -50 162 -14 7 -51 10 -101 7 -66 -4 -90 -11 -161 -46 -48 -24 -105 -62 -135 -91 -84 -81 -93 -137 -25 -164 l37 -15 -62 -7 c-124 -14 -349 17 -509 70 -178 59 -360 162 -484 274 -44 39 -58 59 -63 88 -3 21 -15 88 -25 149 -34 191 -52 363 -53 515 l-1 148 44 58 c101 131 143 158 203 134 17 -7 45 -14 61 -15 17 -1 51 -14 76 -28 25 -14 79 -33 119 -42 82 -19 100 -29 100 -57 0 -28 13 -23 33 11 22 36 57 55 115 63 l44 5 -6 -31 c-3 -18 -8 -51 -12 -74 l-7 -43 77 0 76 0 0 -305 0 -305 40 0 40 0 0 305 0 305 296 0 c278 0 296 1 289 18 -45 103 -67 186 -72 268 -3 50 -3 103 1 118 l6 26 462 -2 462 -3 9 -45z"
            fill="#142F5C"
        />
        <path
            d="M2911 4476 c-10 -11 -8 -17 9 -29 l21 -14 -21 -6 c-33 -8 -22 -42 13 -42 22 1 27 -4 27 -23 0 -17 5 -23 18 -20 28 5 27 43 -3 56 -39 18 -29 46 17 50 22 2 39 9 42 19 10 24 -1 28 -36 15 -21 -8 -36 -8 -42 -2 -14 14 -32 12 -45 -4z"
            fill="#EF3A28"
        />
        <path d="M2460 4465 c0 -8 5 -15 10 -15 6 0 10 7 10 15 0 8 -4 15 -10 15 -5 0 -10 -7 -10 -15z" />
        <path d="M3028 4429 c-24 -14 -23 -36 3 -50 29 -15 59 12 43 38 -14 22 -25 25 -46 12z" />
        <path d="M2412 4409 c4 -31 32 -46 52 -30 9 8 16 22 16 32 0 15 -7 19 -36 19 -31 0 -35 -3 -32 -21z" />
        <path d="M3463 4155 c-7 -19 13 -36 37 -32 8 1 15 11 15 22 0 26 -42 34 -52 10z" />
        <path d="M3008 3998 c-29 -10 -38 -28 -15 -28 16 0 54 27 47 33 -3 2 -17 0 -32 -5z" />
        <path d="M3330 3835 c0 -18 24 -30 40 -20 8 5 8 11 -1 21 -15 19 -39 18 -39 -1z" />
        <path d="M3556 3827 c-43 -32 16 -103 64 -77 24 13 26 52 4 74 -19 19 -44 20 -68 3z" />
        <path d="M2490 3800 c-7 -4 -10 -15 -7 -24 7 -18 32 -21 42 -6 9 15 -19 40 -35 30z" />
        <path d="M2595 3796 c-25 -18 -13 -46 20 -46 18 0 25 5 25 19 0 29 -23 43 -45 27z" />
        <path d="M2181 3711 c-18 -12 -5 -31 20 -31 14 0 19 6 17 17 -4 20 -18 26 -37 14z" />
        <path d="M3760 3349 c0 -3 5 -20 11 -38 11 -32 29 -42 29 -17 0 13 -39 67 -40 55z" />
        <path d="M3360 3110 l0 -130 90 0 90 0 0 130 0 130 -90 0 -90 0 0 -130z"
            fill="#142F5C"
        />
        <path d="M2133 2994 c-17 -14 -17 -14 1 -29 33 -26 63 -15 50 18 -8 23 -30 27 -51 11z" />
        <path d="M1820 2978 c0 -25 46 -69 85 -82 58 -20 62 -9 14 32 -65 57 -99 74 -99 50z" />
        <path d="M2697 2894 c-4 -4 -7 -47 -7 -96 l0 -88 60 0 61 0 -3 93 -3 92 -50 3 c-28 2 -54 0 -58 -4z"
            fill="#142F5C"
        />
        <path d="M3590 2647 c-38 -25 -73 -78 -68 -102 3 -17 128 93 128 113 0 18 -24 14 -60 -11z" />
        <path d="M2290 2625 c0 -9 9 -15 25 -15 16 0 25 6 25 15 0 9 -9 15 -25 15 -16 0 -25 -6 -25 -15z" />
        <path d="M2040 2549 c0 -14 63 -39 97 -39 15 1 38 6 51 14 22 12 21 13 -28 24 -64 15 -120 15 -120 1z" />
        <path
            d="M3243 2390 c-77 -16 -143 -59 -143 -92 0 -37 105 -80 227 -94 73 -8 114 5 139 43 16 26 22 83 9 102 -22 37 -148 59 -232 41z"
            fill="#142F5C"
        />
        <path
            d="M2545 2350 c-119 -25 -225 -89 -225 -134 0 -46 122 -86 308 -101 102 -9 160 5 202 48 58 59 50 131 -19 171 -38 22 -195 32 -266 16z"
            fill="#142F5C"
        />
        <path
            d="M2159 2062 c-56 -29 -73 -58 -47 -80 8 -6 44 -16 81 -22 112 -18 167 7 167 76 0 38 -26 53 -91 54 -43 0 -70 -7 -110 -28z"
            fill="#142F5C"
        />
        <path
            d="M3790 1539 c-58 -16 -163 -40 -235 -54 -208 -41 -214 -44 -87 -42 61 1 112 -1 112 -5 0 -10 -79 -55 -121 -69 -19 -7 -35 -13 -37 -14 -6 -5 42 -95 50 -95 4 0 51 11 104 25 110 29 104 28 104 17 0 -12 -185 -99 -241 -113 l-46 -12 20 -49 c19 -46 22 -49 49 -42 29 6 29 5 17 -18 -21 -40 -71 -110 -107 -150 -19 -21 -29 -38 -23 -38 24 0 120 51 183 97 l67 49 -49 29 c-28 16 -50 32 -50 36 0 10 123 37 133 29 4 -4 7 -47 5 -96 l-3 -89 -45 -6 c-25 -3 -35 -7 -23 -7 24 -2 53 -37 53 -64 0 -15 5 -17 28 -12 78 19 86 35 92 178 l5 121 59 13 c33 7 64 11 71 9 6 -3 20 -23 30 -46 11 -22 28 -43 37 -47 42 -13 81 43 59 85 -19 35 -74 69 -136 86 -81 21 -84 20 -45 -20 18 -19 32 -36 29 -38 -8 -8 -333 -18 -326 -11 4 4 55 23 114 43 112 37 293 112 293 121 0 3 -17 16 -37 30 -20 14 -42 29 -49 34 -8 7 -23 0 -48 -22 l-37 -32 -117 1 c-93 1 -110 3 -82 10 19 6 68 20 109 31 72 21 73 22 53 39 -21 17 -21 17 21 23 23 3 87 8 141 11 54 3 100 6 102 8 2 2 -18 24 -44 49 l-47 45 -105 -28z" />
        <path
            d="M1600 1535 c-23 -24 -28 -25 -169 -27 l-146 -2 143 -3 c78 -2 142 -7 142 -11 0 -4 -7 -15 -15 -26 -13 -17 -20 -17 -96 -7 -85 11 -109 8 -74 -12 11 -6 40 -30 65 -54 l45 -43 -53 0 c-29 0 -69 7 -89 15 -66 28 -63 35 -63 -186 l0 -200 -30 18 -30 17 0 117 c0 95 3 118 15 123 24 9 18 20 -27 56 l-41 33 -23 -26 c-16 -19 -34 -27 -65 -30 l-44 -4 48 -1 47 -2 0 -140 0 -139 -40 -23 c-22 -13 -40 -27 -40 -33 0 -5 13 -30 29 -54 l29 -43 42 81 c24 45 46 80 50 79 4 -2 23 -23 41 -47 20 -26 55 -55 84 -70 46 -24 62 -26 213 -29 140 -4 162 -2 162 11 0 9 11 28 24 44 l24 28 -182 0 c-99 0 -194 4 -211 8 l-30 9 25 13 c22 12 26 21 30 82 5 68 5 68 35 68 l30 0 3 -67 c3 -67 4 -68 30 -68 43 0 51 11 54 75 3 59 3 60 33 60 25 0 30 -4 33 -28 3 -22 -1 -30 -18 -34 -18 -5 -19 -7 -6 -22 8 -9 18 -30 23 -47 8 -31 9 -32 43 -20 52 17 60 42 60 204 0 98 3 142 11 142 15 0 -6 25 -43 52 l-29 20 -23 -21 c-24 -23 -76 -31 -58 -8 5 6 12 23 14 36 2 19 16 30 63 49 33 14 62 27 64 29 6 4 -70 83 -79 83 -4 0 -17 -11 -30 -25z m-142 -248 l3 -48 -33 3 c-29 3 -33 7 -36 36 -5 50 4 64 35 60 26 -3 28 -7 31 -51z m147 3 c0 -43 -1 -45 -32 -48 -33 -3 -33 -3 -33 41 0 51 6 59 40 55 23 -3 25 -7 25 -48z m-145 -105 c0 -45 0 -45 -35 -45 -35 0 -35 0 -35 45 0 45 0 45 35 45 35 0 35 0 35 -45z m150 0 c0 -45 0 -45 -35 -45 -35 0 -35 0 -35 45 0 45 0 45 35 45 35 0 35 0 35 -45z" />
        <path
            d="M2905 1547 c-2 -7 -14 -48 -26 -92 -12 -44 -34 -113 -49 -152 -16 -40 -26 -73 -22 -73 3 0 16 10 29 22 l24 23 -1 -110 c-2 -183 -3 -175 23 -175 28 0 67 26 67 46 0 10 12 14 40 14 29 0 40 -4 40 -15 0 -17 18 -19 54 -5 26 9 26 10 26 125 0 93 3 117 15 121 11 5 4 15 -28 39 l-42 33 -26 -24 c-28 -27 -75 -32 -103 -11 -18 13 -17 16 9 55 l28 42 98 0 99 0 0 -97 c0 -139 -17 -322 -31 -339 -7 -9 -33 -14 -73 -15 -51 0 -57 -2 -36 -10 38 -15 70 -50 70 -75 0 -31 10 -35 55 -23 84 24 100 75 111 354 5 131 10 173 21 182 12 10 9 17 -24 47 -21 19 -43 36 -49 36 -6 0 -21 -11 -34 -25 -21 -23 -31 -25 -106 -25 -46 0 -85 3 -88 8 -2 4 9 26 24 49 l29 42 -60 20 c-44 15 -61 17 -64 8z m120 -312 l0 -50 -37 -3 -38 -3 0 56 0 56 38 -3 37 -3 0 -50z m0 -120 l0 -50 -37 -3 -38 -3 0 56 0 56 38 -3 37 -3 0 -50z" />
        <path
            d="M4200 1548 c0 -24 -69 -171 -91 -194 -22 -23 -22 -24 -5 -69 10 -25 19 -45 21 -45 1 0 19 7 40 16 20 8 39 13 41 11 6 -6 -72 -104 -92 -115 -15 -8 -14 -13 4 -56 12 -25 24 -46 28 -46 18 0 223 104 218 111 -2 4 -10 6 -17 4 -27 -8 -168 -14 -165 -7 2 4 49 52 105 105 l102 97 -40 26 c-61 38 -62 38 -82 -11 -19 -45 -19 -45 -68 -45 -27 0 -49 2 -49 5 0 3 21 26 48 53 26 26 64 66 84 88 l37 41 -55 22 c-66 25 -64 25 -64 9z" />
        <path
            d="M4490 1554 c0 -2 14 -32 30 -66 17 -34 30 -63 30 -65 0 -2 -46 -4 -102 -5 -96 -2 -98 -2 -25 -5 42 -2 77 -8 77 -12 0 -17 -96 -111 -113 -111 -21 0 -21 -9 -1 -60 14 -33 20 -39 37 -34 19 6 20 3 15 -60 -7 -87 -45 -162 -110 -221 -58 -52 -51 -56 35 -16 112 51 165 126 176 245 4 54 10 71 21 71 12 0 16 -27 20 -160 5 -158 5 -160 30 -173 29 -15 146 -10 179 8 24 13 28 52 7 70 -8 6 -16 33 -18 58 l-3 47 -18 -52 c-17 -48 -22 -53 -48 -53 l-29 0 0 151 c0 141 8 178 25 112 13 -55 47 -69 78 -35 25 27 21 65 -10 95 -29 27 -121 72 -130 63 -3 -2 4 -18 16 -34 12 -17 21 -33 21 -36 0 -3 -49 -6 -110 -6 -60 0 -110 3 -110 8 0 4 29 22 64 40 35 18 72 39 82 46 17 13 16 15 -19 21 -75 14 -33 25 101 25 l137 1 -40 34 c-22 19 -45 35 -50 35 -6 0 -19 -13 -28 -30 -16 -26 -24 -30 -63 -30 -43 0 -59 12 -29 24 21 8 19 52 -5 76 -11 11 -23 20 -27 20 -5 1 -27 5 -50 9 -24 5 -43 7 -43 5z" />
        <path
            d="M577 1524 c11 -16 30 -48 41 -71 l20 -43 -146 -2 c-81 -1 -114 -4 -74 -5 58 -3 72 -7 72 -20 0 -25 -64 -134 -110 -186 -23 -26 -37 -47 -31 -47 15 0 60 21 103 47 21 13 39 23 42 23 2 0 20 -33 40 -72 19 -40 41 -81 48 -90 10 -14 8 -21 -12 -44 -38 -40 -137 -105 -210 -136 -36 -15 -58 -28 -49 -28 44 0 182 45 257 85 l86 46 42 -31 c46 -33 153 -85 194 -95 21 -5 27 -1 39 25 7 18 27 40 44 50 l30 19 -29 6 c-130 27 -254 69 -254 85 0 4 7 13 15 20 8 6 31 37 51 68 21 32 42 60 48 64 14 9 11 11 -52 41 l-53 25 -28 -61 c-15 -34 -37 -73 -48 -86 -19 -23 -20 -23 -46 -6 -27 18 -97 105 -97 122 0 12 81 89 100 95 9 3 -7 16 -42 34 -32 15 -58 32 -58 36 0 4 112 8 250 8 l250 0 -44 40 c-24 22 -48 40 -54 40 -6 0 -20 -16 -32 -35 l-22 -35 -84 0 c-82 0 -95 5 -73 27 18 18 6 65 -22 86 -15 10 -48 22 -75 25 l-47 5 20 -29z" />
        <path
            d="M2130 1496 l0 -56 -147 0 c-80 0 -144 -3 -140 -6 3 -4 51 -6 106 -5 54 1 102 -2 105 -7 9 -16 -85 -123 -149 -170 -35 -25 -63 -48 -61 -50 9 -8 164 62 217 97 32 21 60 36 63 33 4 -3 6 -32 6 -64 0 -64 6 -69 69 -47 l31 11 0 94 c0 90 11 120 25 72 14 -44 84 -125 140 -162 31 -21 58 -36 59 -34 2 1 11 17 20 35 9 18 26 38 38 44 20 11 16 14 -53 34 -69 20 -181 75 -194 95 -8 13 33 19 144 19 58 1 106 2 107 4 1 1 -16 18 -38 37 l-41 34 -27 -32 c-26 -31 -29 -32 -103 -32 l-77 0 0 40 c0 27 6 42 18 49 15 9 15 10 -4 11 -12 0 -42 3 -68 6 l-46 7 0 -57z" />
        <path
            d="M2648 1523 c11 -16 27 -44 35 -65 18 -44 50 -57 78 -32 20 18 24 40 13 69 -9 22 -77 55 -114 55 l-31 0 19 -27z" />
        <path
            d="M1080 1538 c0 -3 13 -32 30 -64 16 -32 30 -67 30 -76 0 -20 32 -32 65 -24 52 13 35 96 -28 135 -33 20 -97 39 -97 29z" />
        <path
            d="M2705 1370 c-13 -15 -32 -20 -74 -22 l-56 -2 53 -3 52 -4 0 -174 c0 -160 -2 -176 -20 -193 -19 -18 -19 -18 15 -66 19 -27 36 -50 38 -52 2 -2 32 39 67 91 35 53 60 98 56 102 -3 4 -12 1 -18 -5 -32 -32 -38 -14 -38 123 0 114 2 135 16 143 14 8 11 15 -22 45 -22 20 -42 37 -45 37 -3 0 -14 -9 -24 -20z" />
        <path
            d="M777 1317 c33 -34 70 -81 82 -105 17 -34 27 -42 49 -42 85 0 62 118 -32 167 -32 17 -120 43 -145 43 -8 0 13 -28 46 -63z" />
        <path
            d="M2300 1205 c-22 -24 -30 -25 -126 -25 -80 0 -112 4 -149 20 -26 11 -49 20 -51 20 -2 0 -4 -64 -4 -141 l0 -142 38 6 c20 4 44 16 54 27 14 18 28 20 122 20 100 0 106 -1 106 -20 0 -28 22 -34 65 -20 l35 12 0 92 c0 52 5 97 11 103 7 7 -1 19 -29 42 -22 17 -42 31 -44 31 -3 0 -15 -11 -28 -25z m-10 -75 l0 -41 -112 3 c-110 3 -113 4 -116 26 -7 49 0 52 118 52 l110 0 0 -40z m0 -90 l0 -41 -112 3 c-110 3 -113 4 -116 26 -7 49 0 52 118 52 l110 0 0 -40z" />
        <path
            d="M3817 1034 c23 -27 54 -71 70 -99 25 -42 34 -50 58 -50 21 0 33 7 45 28 14 25 13 30 -5 64 -22 42 -100 87 -169 99 l-40 7 41 -49z" />
        <path d="M4337 1040 c-15 -5 -75 -16 -133 -26 -117 -20 -113 -16 -79 -97 l15 -37 120 81 c137 92 144 99 77 79z" />
        <path
            d="M2410 933 l-22 -28 -286 -5 -287 -5 358 -3 c196 -1 357 0 357 2 0 6 -83 66 -91 66 -4 0 -17 -12 -29 -27z" />
        <path
            d="M460 567 l0 -94 51 1 c57 1 79 20 79 66 0 40 -30 63 -72 55 l-34 -7 4 36 c3 28 1 36 -12 36 -14 0 -16 -14 -16 -93z m95 -26 c0 -37 -22 -58 -49 -48 -10 4 -16 18 -16 40 0 41 7 49 40 45 21 -3 25 -8 25 -37z" />
        <path
            d="M642 569 c3 -83 5 -94 22 -97 15 -3 17 0 11 14 -4 11 -8 52 -9 93 -1 51 -5 76 -14 79 -10 3 -12 -17 -10 -89z" />
        <path d="M715 651 c-6 -11 9 -23 19 -14 9 9 7 23 -3 23 -6 0 -12 -4 -16 -9z" />
        <path d="M2685 651 c-6 -11 9 -23 19 -14 9 9 7 23 -3 23 -6 0 -12 -4 -16 -9z" />
        <path
            d="M70 555 c0 -69 3 -85 15 -85 10 0 15 11 15 35 0 33 2 35 36 35 50 0 74 15 74 48 0 41 -17 52 -82 52 l-58 0 0 -85z m104 59 c21 -20 6 -49 -29 -58 -36 -9 -45 -1 -45 40 0 31 3 34 29 34 16 0 37 -7 45 -16z" />
        <path d="M1025 631 c30 -6 30 -6 33 -84 4 -101 22 -100 22 2 l0 80 38 4 c20 2 1 4 -43 4 -47 0 -67 -2 -50 -6z" />
        <path
            d="M2310 620 c0 -11 -7 -20 -15 -20 -8 0 -15 -4 -15 -10 0 -5 7 -10 15 -10 11 0 15 -12 15 -49 0 -41 3 -51 21 -56 27 -9 39 4 16 16 -22 13 -25 89 -2 89 8 0 15 5 15 10 0 6 -7 10 -15 10 -8 0 -15 9 -15 20 0 11 -4 20 -10 20 -5 0 -10 -9 -10 -20z" />
        <path
            d="M2593 621 c-3 -12 -13 -21 -22 -21 -14 -1 -14 -2 2 -14 11 -9 17 -27 17 -53 0 -21 5 -44 12 -51 15 -15 48 -16 48 -2 0 6 -7 10 -15 10 -22 0 -20 79 3 96 16 13 16 13 0 14 -10 0 -18 6 -18 14 0 24 -21 30 -27 7z" />
        <path
            d="M3215 615 c-25 -24 -32 -65 -19 -99 11 -30 108 -86 145 -85 l34 1 -37 10 c-44 12 -47 20 -13 38 34 18 51 72 35 111 -15 36 -37 49 -85 49 -25 0 -43 -8 -60 -25z m102 -7 c62 -58 -16 -158 -79 -101 -24 22 -24 77 2 103 26 26 48 25 77 -2z" />
        <path
            d="M4100 625 c-20 -24 -7 -49 40 -73 27 -13 45 -29 45 -40 0 -14 -9 -17 -53 -16 -41 2 -51 -1 -42 -10 6 -6 31 -11 55 -11 84 0 99 57 25 90 -53 24 -65 39 -44 56 12 10 22 10 45 2 16 -6 31 -8 34 -3 14 22 -86 28 -105 5z" />
        <path
            d="M4563 621 c-3 -12 -13 -21 -22 -21 -14 -1 -14 -2 2 -14 11 -9 17 -27 17 -53 0 -21 5 -44 12 -51 15 -15 48 -16 48 -2 0 6 -7 10 -15 10 -22 0 -20 79 3 96 16 13 16 13 0 14 -10 0 -18 6 -18 14 0 24 -21 30 -27 7z" />
        <path
            d="M260 556 c0 -28 7 -52 19 -67 17 -22 22 -23 50 -12 18 6 33 7 37 2 15 -24 24 -3 24 57 0 48 -3 65 -12 61 -8 -2 -12 -16 -10 -35 4 -42 -13 -72 -42 -72 -28 0 -36 16 -36 71 0 28 -4 39 -15 39 -11 0 -15 -12 -15 -44z" />
        <path d="M710 535 c0 -51 3 -65 15 -65 12 0 15 14 15 65 0 51 -3 65 -15 65 -12 0 -15 -14 -15 -65z" />
        <path
            d="M812 584 c-18 -12 -22 -24 -20 -52 4 -44 39 -69 81 -58 34 8 36 25 2 18 -31 -5 -55 13 -55 42 0 30 18 46 53 46 16 0 26 4 22 10 -9 15 -58 12 -83 -6z" />
        <path
            d="M1204 535 c0 -46 4 -65 13 -65 8 0 13 13 13 36 0 45 15 74 40 74 11 0 20 5 20 10 0 14 -23 12 -39 -2 -11 -10 -14 -10 -18 0 -3 6 -10 12 -17 12 -9 0 -12 -20 -12 -65z" />
        <path
            d="M1338 593 c-31 -8 -19 -20 18 -19 49 1 56 -21 10 -29 -82 -16 -72 -70 13 -70 l51 0 0 40 c0 69 -31 94 -92 78z m62 -72 c0 -19 -18 -31 -46 -31 -20 0 -17 27 4 39 26 16 42 13 42 -8z" />
        <path
            d="M1490 532 c0 -78 22 -82 30 -6 5 47 6 49 35 49 29 0 30 -2 33 -52 2 -38 7 -53 18 -53 10 0 14 13 14 48 0 67 -9 77 -75 77 l-55 1 0 -64z" />
        <path
            d="M1682 588 c-21 -21 -13 -38 23 -55 19 -9 35 -23 35 -31 0 -10 -9 -13 -35 -10 -41 5 -47 -9 -9 -18 34 -9 76 11 72 34 -2 9 -18 23 -36 31 -42 19 -42 41 1 41 24 0 28 3 17 10 -21 13 -54 12 -68 -2z" />
        <path
            d="M1820 502 c0 -71 3 -93 13 -89 7 2 11 16 9 36 -4 32 -3 32 31 26 43 -8 77 20 77 63 0 42 -26 61 -83 59 l-47 -2 0 -93z m96 51 c9 -34 -6 -57 -39 -61 -21 -3 -28 2 -33 21 -8 35 11 67 41 67 18 0 26 -7 31 -27z" />
        <path
            d="M2015 588 c-43 -25 -47 -67 -9 -97 51 -40 114 -16 114 44 0 54 -55 81 -105 53z m75 -27 c15 -30 -4 -71 -33 -71 -29 0 -47 17 -47 45 0 44 60 63 80 26z" />
        <path
            d="M2179 598 c0 -2 -1 -31 -3 -65 -2 -47 1 -63 11 -63 8 0 13 13 13 36 0 45 15 74 40 74 11 0 20 5 20 10 0 14 -23 12 -39 -2 -11 -10 -14 -10 -18 0 -4 10 -22 17 -24 10z" />
        <path
            d="M2428 593 c-31 -8 -19 -20 18 -19 49 1 56 -21 10 -29 -81 -16 -72 -69 13 -71 l51 -1 0 41 c0 70 -30 95 -92 79z m62 -72 c0 -19 -18 -31 -46 -31 -20 0 -17 27 4 39 26 16 42 13 42 -8z" />
        <path d="M2680 535 c0 -51 3 -65 15 -65 12 0 15 14 15 65 0 51 -3 65 -15 65 -12 0 -15 -14 -15 -65z" />
        <path
            d="M2782 584 c-32 -22 -30 -78 3 -100 31 -20 90 -11 105 16 36 68 -43 130 -108 84z m76 -16 c28 -28 7 -78 -34 -78 -22 0 -34 17 -34 49 0 21 19 41 40 41 9 0 21 -5 28 -12z" />
        <path
            d="M2950 533 c0 -49 3 -63 15 -63 11 0 15 12 15 50 0 44 3 50 24 56 37 9 46 -2 46 -57 0 -37 4 -49 15 -49 19 0 22 105 3 117 -7 4 -37 8 -65 8 l-53 1 0 -63z" />
        <path
            d="M3410 556 c0 -28 7 -52 19 -67 17 -22 22 -23 50 -12 18 6 33 7 37 2 15 -24 24 -3 24 56 0 50 -3 65 -14 65 -11 0 -16 -15 -18 -52 -3 -51 -4 -53 -33 -53 -29 0 -30 2 -33 53 -2 37 -7 52 -18 52 -10 0 -14 -12 -14 -44z" />
        <path
            d="M3615 575 c-14 -13 -25 -31 -25 -40 0 -9 11 -27 25 -40 25 -26 59 -32 85 -15 11 7 6 10 -20 10 -34 0 -60 14 -60 31 0 5 24 9 53 11 46 3 52 5 49 23 -8 48 -68 59 -107 20z m79 -10 c4 -12 -3 -15 -36 -15 -35 0 -39 2 -28 15 7 8 23 15 35 15 13 0 25 -7 29 -15z" />
        <path
            d="M3770 535 c0 -51 3 -65 15 -65 11 0 15 11 15 43 0 46 13 67 42 67 10 0 18 5 18 10 0 13 -16 13 -40 0 -13 -7 -21 -7 -25 0 -16 25 -25 5 -25 -55z" />
        <path
            d="M3873 588 c3 -7 16 -38 30 -69 26 -57 23 -89 -8 -89 -8 0 -15 -4 -15 -10 0 -14 23 -13 43 3 15 11 77 144 77 166 0 28 -21 6 -37 -39 -10 -27 -21 -50 -24 -50 -4 0 -15 23 -25 50 -10 28 -24 50 -32 50 -8 0 -12 -6 -9 -12z" />
        <path
            d="M4266 543 c34 -74 35 -95 7 -108 -26 -11 -30 -25 -9 -25 26 0 55 35 81 100 15 36 29 71 32 78 3 6 -2 12 -10 12 -10 0 -22 -19 -32 -50 -9 -28 -20 -48 -24 -45 -5 2 -16 25 -25 50 -10 25 -24 45 -32 45 -10 0 -7 -14 12 -57z" />
        <path
            d="M4412 588 c-21 -21 -13 -38 23 -55 19 -9 35 -23 35 -31 0 -11 -9 -13 -35 -9 -40 7 -48 -9 -9 -19 34 -9 76 11 72 34 -2 9 -18 23 -36 31 -42 19 -42 41 1 41 24 0 28 3 17 10 -21 13 -54 12 -68 -2z" />
        <path
            d="M4675 575 c-14 -13 -25 -31 -25 -40 0 -9 11 -27 25 -40 25 -26 59 -32 85 -15 11 7 6 10 -20 10 -34 0 -60 14 -60 32 0 4 23 8 50 8 46 0 50 2 50 25 0 47 -66 60 -105 20z m75 -10 c11 -13 7 -15 -30 -15 -37 0 -41 2 -30 15 7 8 20 15 30 15 10 0 23 -7 30 -15z" />
        <path
            d="M4830 533 c0 -48 3 -63 14 -63 11 0 16 15 18 53 3 48 5 52 28 52 23 0 25 -4 28 -52 2 -37 7 -53 17 -53 10 0 15 16 17 53 3 48 5 52 28 52 23 0 25 -4 28 -52 2 -38 7 -53 18 -53 10 0 14 14 14 54 0 67 -17 85 -63 68 -17 -6 -35 -8 -41 -3 -6 4 -32 8 -58 8 l-48 0 0 -64z" />
    </g>
</svg>
